<svg xmlns="http://www.w3.org/2000/svg" viewBox="0 0 1597 1296">
  <style>
    .sides{fill:#a4446e}.lift2{fill:#c4c4c4}.lift{fill:#b5b5b5}.floor-s{fill:#58686c}.st5{fill:#7f8585}.st9{fill:#b15e82}
  </style>
  <g id="площадка">
    <path fill="#050708" d="M1549.7 462L366.2 379.3 1.2 698.7l.2 4.8 1183.5 82.8 365-319.4-.2-4.9z"/>
    <polygon fill="#333d3d" points="1549.7 462 1184.1 782 1.2 698.7 366.2 379.3"/>
  </g>
  <g id="пол_1_">
    <polygon points="1291.4 627.7 1290.9 618.2 1130.3 606.9 1122.2 614 1118.6 613.8 1118.3 607.1 1076.5 604.2 1069.5 610.4 942.8 601.5 942.8 601.5 942.4 592.1 942.4 591.9 797 581.8 810 570.4 868 574.5 974 539.9 973.5 530.4 955.5 525.3 861.3 555.7 849 554.9 953.4 463.3 953 453.8 823.7 444.7 815.5 451.9 814.3 452.9 379.2 422.9 120.2 649.6 120.7 659.1 306.3 672.4 319.7 660.7 319.7 660.7 1187.6 722 1289 633.3 1288.8 629.9" class="floor-s"/>
    <polygon fill="#8b9193" points="953 453.8 837.9 554.1 861.3 555.7 955.5 525.3 973.5 530.4 867.5 564.9 809.1 560.8 785.4 581.6 942.4 591.9 932.1 601.2 1069.5 610.4 1076.5 604.2 1118.3 607.1 1110.9 613.8 1122.1 614.5 1130.2 607.4 1290.9 618.2 1284.7 624.1 1288.4 624.4 1187.6 712.4 317.7 651.1 304.3 662.7 120.2 649.6 379.2 422.9 814.3 452.9 823.7 444.7"/>
  </g>
  <g id="landmarks-o0">
    <path d="M1271.9 610.8l-120.2-8.4-9.3 8.1-29.1-2-9.7 8.3-26.2-1.8-19 16.9-17.6-1.2 22.9-20.1-.7-14.3-90.7-6.3-41.4 36.3v.5h-.5l-16.9 14.8-.3-7.3-93-6.5-9.6 8.4-.4-9.1h-.4l-97.7-6.8-1.8 1.6-.1-1.8-13.7-.9.1-.1-.7-14.3-221.5-15.5.7-.6-.7-14.3-32.1-2.2-15.8 13.8-91.8-6.4 21-18.4-.7-14.3-44.8-3.1-91.3 79.9.7 14.3 385.7 27 1.3-1.1.1 1.2 64 4.5 1.9-1.6.1 1.8 98 6.9 9.6-8.4.4 9.1 93 6.5 7.7-6.8.3 7.3 90.6 6.3 8.5-7.5.4 8.1 199.9 14 91.4-80-.6-14.5zM219.3 623.5l91.2-79.8-91.2 79.8zm207.4-37.6l15.8-13.8-15.8 13.8zm686.8 22.7l-9.7 8.3 9.7-8.3zm-36 6.4l-19 16.9 19-16.9zM560.8 457.4l-.7-14.3-43.3-3-11.1 9.7-30-2.1-19.1 16.7v.8l-.9-.1-15.5 13.6v.9l-1-.1-57.2 50 .7 14.3 66.8 4.7 18.4-16.1 6.6.5 38.8-33.9v-.9l1 .1 15.5-13.6v-.8l.9.1 30.1-26.5z" class="sides"/>
    <path d="M890.3 472.6l-.7-14.3-94.6-6.6-3.7 3.2-.2-3.5-185.2-13-55 48.2.7 14.3 11.5.8-38.8 34 .3 6.3-6.9-.5-50.2 43.9.7 14.3 226.9 15.9 37.6-32.8 32.2 1.8 12.2-10.7-.3-6.3 4.6.3 19.1-16.7-.6-13.3 14.6 1 51.8-45.4-.2-4.6 5 .4 19.2-16.7zm-170.5 55.9l.1 2.8-3.1-.2 3-2.6z" class="sides"/>
    <polygon id="podol_0_11" points="791.2 451.4 736.2 499.6 551 486.7 606 438.5" class="st5"/>
    <polygon id="podol_0_12" points="889.7 458.3 870.5 475.1 775.9 468.4 795.1 451.7" class="st5"/>
    <polygon id="podol_0_13" points="865.7 479.3 813.9 524.6 719.3 518 771.1 472.7" class="st5"/>
    <polygon id="podol_0_14" points="733.8 501.4 695.4 535 661.5 532.9 648.3 544.4 524.4 535.7 576.2 490.4" class="st5"/>
    <polygon id="podol_0_15" points="799.9 536.9 780.7 553.6 651.6 544.6 664.1 534.3 697.5 537 705.3 530.3" class="st5"/>
    <polygon id="podol_0_16" points="776.5 559.6 764.2 570.3 732 568.5 694.4 601.3 467.5 585.5 517.7 541.5" class="st5"/>
    <g id="_x22_лифты_x22_">
      <polygon class="lift2" points="390.5 566.6 391.2 580.9 378.5 592 377.8 577.7"></polygon>
      <polygon class="lift" points="390.5 566.6 352.5 564 339.8 575.1 340.5 589.3 378.5 592 377.8 577.7"></polygon>
      <polygon class="lift2" points="433.3 569.6 434 583.9 421.3 595 420.6 580.7"></polygon>
      <polygon class="lift" points="433.3 569.6 395.3 567 382.6 578.1 383.3 592.3 421.3 595 420.6 580.7"></polygon>
      <g>
        <polygon class="lift" points="805.2 576 805.9 590.3 791.9 602.5 791.2 588.3"></polygon>
        <polygon class="lift2" points="805.2 576 770.8 573.6 756.8 585.9 757.5 600.1 791.9 602.5 791.2 588.3"></polygon>
        <polygon class="lift2" points="789.5 589.8 755 587.4 741.1 599.7 741.7 613.9 776.1 616.3 775.5 602.1"></polygon>
				<polygon class="lift" points="789.5 589.8 790.1 604.1 776.1 616.3 775.5 602.1"></polygon>
      </g>
    </g>
    <polygon points="681.6 617.2 695.8 604.7 696.5 618.9 681.6 617.8" class="sides"/>
      <polygon id="podol_0_1" points="559.8 443.2 529.8 469.4 456.9 464.4 475.8 447.8 505.8 449.9 516.9 440.2" class="st9"/>
      <polygon id="podol_0_2" points="528.8 470.3 513.5 483.8 440.6 478.7 455.9 465.2" class="st9"/>
      <polygon id="podol_0_3" points="512.4 484.7 473.8 518.5 467.2 518 448.8 534.2 382.5 529.5 439.5 479.6" class="st9"/>
      <polygon id="podol_0_4" points="354.7 546.8 318.7 578.4 426.7 585.9 442.5 572.1 474.1 574.3 458.4 588.1 695.5 604.7 681.2 617.2 645.3 614.7 604.4 650.5 219.3 623.5 310.4 543.7" class="st9"/>
      <polygon id="podol_0_5" points="709.7 620 669.8 655 606.2 650.6 646.2 615.6" class="st9"/>
      <polygon id="podol_0_6" points="1062.8 596.3 1021.5 632.4 931.2 626.1 972.5 590" class="st9"/>
      <polygon id="podol_0_7" points="809.7 627 769.7 662 672.2 655.2 712.1 620.2" class="st9"/>
      <polygon id="podol_0_8" points="912.8 634.2 872.8 669.2 780.3 662.8 820.3 627.8" class="st9"/>
      <polygon id="podol_0_9" points="1020.8 633 971.5 676.1 881.4 669.8 930.6 626.7" class="st9"/>
      <polygon id="podol_0_10" points="1271.6 610.9 1180.3 690.7 980.9 676.8 1034.2 630.2 1058.5 631.9 1077.5 615 1103.8 616.8 1113.5 608.6 1142.5 610.6 1151.8 602.5" class="st9"/>
  </g>
</svg>