<svg xmlns="http://www.w3.org/2000/svg" viewBox="0 0 1597 1296">
  <style>
    .sides{fill:#a4446e}.lift2{fill:#c4c4c4}.lift{fill:#b5b5b5}.floor-s{fill:#58686c}.st5{fill:#b05d81}.st7{fill:#7f8585}
  </style>
  <g id="Слой_2">
    <path d="M1291.3 627.7l-.5-9.5L233.2 543l-113 106.6.5 9.5 185.6 13.3 13.4-11.7 143.3 10 109.9 8.3 614.8 43 101.3-88.7-.2-3.4 2.5-2.2z" class="floor-s"/>
    <polygon fill="#8b9193" points="1290.9 617.9 1284.8 623.3 1288.5 623.6 1187.2 712.3 572.8 669 462.8 660.7 319.2 650.9 305.9 662.6 120.2 649.4 233.3 542.8"/>
  </g>
  <g id="landmarks-o10">
    <path class="sides" d="M453.7 557.6l-105.3-7.4-19.1 16.8h.3-.3l.7 14.3 105.3 7.4 19.2-16.8-.8-14.3zm-15.1 13.3"/>
    <path class="sides" d="M729.1 576.7l-67-4.7-1.3 1.2-.1-1.3-101.7-7.1-.5.5v-.1l.3-.3-103.6-7.2-20 17.5.1 1.6-59.8-4.2-28.8 25.2.7 14.3 66.1 4.6 21.4-18.7.3 5.3 5.6.4-8.4 7.4.7 14.3 96.1 6.7.5-.5v.2l71.5 5 .7-.6v.2l70.5 4.9 31-27.2v.2L730 591l-.9-14.3zm-293.9.2l-59.7-4.2 59.7 4.2zm123.2-11.4l.7-.6-.7.6z"/>
    <g id="_x22_лифты_x22_">
      <polygon class="lift" points="805.2 576 805.9 590.3 791.9 602.5 791.2 588.3"></polygon>
      <polygon class="lift2" points="805.2 576 770.8 573.6 756.8 585.9 757.5 600.1 791.9 602.5 791.2 588.3"></polygon>
      <polygon class="lift2" points="789.5 589.8 755 587.4 741.1 599.7 741.7 613.9 776.1 616.3 775.5 602.1"></polygon>
			<polygon class="lift" points="789.5 589.8 790.1 604.1 776.1 616.3 775.5 602.1"></polygon>
    </g>
    <path class="sides" d="M1146.3 637.2l-99.4-7-4.4 3.9-.2-4.2-.3.3v-.2l-99-6.9-7.5 6.6-.3-7.2-88-6.2 18.3-16-.7-14.3-.3.3.3-.3-52.3-3.7-38.9 34.1.2 4.3-84.7-5.9-14.2 12.5.7 14.3 132.2 9.2 4.1-3.6.2 3.9 99.4 7 7.4-6.5.3 7 99.5 7 4.4-3.9.2 4.2 99.4 7 24.4-21.4-.8-14.3zm-.3 0l-99-6.9 99 6.9z" class="floor-s"/>
    <polygon id="podol_10_1" points="558.4 565 532.1 588 531.2 588 522.9 595.2 434.6 589 449.2 576.1 435.1 575.2 455.1 557.7" class="st5"/>
    <polygon id="podol_10_2" points="442 577.3 412.6 602.8 346.5 597.8 375.4 572.6" class="st5"/>
    <polygon id="podol_10_3" fill="#b15e82" points="660.7 572 634.4 595.2 532.7 588.1 559.1 564.9"/>
    <polygon id="podol_10_4" points="729.1 576.7 702.4 599.9 635.8 595.3 662.1 572.1" class="st5"/>
    <polygon id="podol_10_5" points="522.6 595.6 521 597 549.3 599.1 528.1 617.7 432.1 611.1 455.1 590.9" class="st5"/>
    <polygon id="podol_10_6" points="620.7 604.4 600.2 622.4 529 617.6 549.7 599.4" class="st5"/>
    <polygon id="podol_10_7" points="702.1 600.1 671.2 627.2 601.1 622.2 622.2 603.8 521.7 596.7 531.5 588.2" class="st5"/>
    <polygon id="podol_10_8" points="453.7 557.6 433.8 575 329.3 567 348.4 550.2" class="st7"/>
    <polygon id="podol_10_9" points="864.3 586.1 825.6 620 773.8 616.4 812.5 582.5" class="st7"/>
    <polygon id="podol_10_10" points="820.9 624.1 806.8 636.4 675.1 627.2 689.1 614.9" class="st7"/>
    <polygon id="podol_10_11" points="934.8 622.5 910.5 643.7 811.6 636.8 835.8 615.6" class="st7"/>
    <polygon id="podol_10_12" points="1042 630 1017.7 651.2 918.7 644.3 943 623" class="st7"/>
    <polygon id="podol_10_13" points="1146 637.2 1121.8 658.5 1022.8 651.5 1047 630.3" class="st7"/>
  </g>
</svg>