<svg xmlns="http://www.w3.org/2000/svg" viewBox="0 0 1597 1296">
  <style>
    .sides{fill:#a4446e}.lift2{fill:#c4c4c4}.lift{fill:#b5b5b5}.floor-s{fill:#58686c}.st7{fill:#b15e82}
  </style>
  <g id="пол">
    <polygon points="1291.4 627.7 1290.9 618.2 1130.3 606.9 1122.2 614 1118.6 613.8 1118.3 607.1 1076.5 604.2 1069.5 610.4 942.8 601.5 942.8 601.5 942.4 592.1 942.4 591.9 797 581.8 810 570.4 868 574.5 974 539.9 973.5 530.4 955.5 525.3 861.3 555.7 849 554.9 953.4 463.3 953 453.8 823.7 444.7 815.5 451.9 814.3 452.9 379.2 422.9 120.2 649.6 120.7 659.1 306.3 672.4 319.7 660.7 319.7 660.7 1187.6 722 1289 633.3 1288.8 629.9" class="floor-s"></polygon>
    <polygon fill="#8b9193" points="953 453.8 837.9 554.1 861.3 555.7 955.5 525.3 973.5 530.4 867.5 564.9 809.1 560.8 785.4 581.6 942.4 591.9 932.1 601.2 1069.5 610.4 1076.5 604.2 1118.3 607.1 1110.9 613.8 1122.1 614.5 1130.2 607.4 1290.9 618.2 1284.7 624.1 1288.4 624.4 1187.6 712.4 317.7 651.1 304.3 662.7 120.2 649.6 379.2 422.9 814.3 452.9 823.7 444.7"></polygon>
  </g>
  <g id="landmarks-o1">
    <path d="M890.5 459.8l-453.7-31.7-19.2 16.8.7 14.3 33.5 2.3-92.3 82.5.7 14.3 373.1 26.1 33.4-29.2 29.5 2.1 95-83.1-.7-14.4zM358.4 546.8l-49.9-3.5-33.1 29 .7 14.3 49.9 3.5 33.1-29-.7-14.3z" class="sides"></path>
    <g id="_x22_лифты_x22_">
      <polygon class="lift2" points="390.5 566.6 391.2 580.9 378.5 592 377.8 577.7"></polygon>
      <polygon class="lift" points="390.5 566.6 352.5 564 339.8 575.1 340.5 589.3 378.5 592 377.8 577.7"></polygon>
      <polygon class="lift2" points="433.3 569.6 434 583.9 421.3 595 420.6 580.7"></polygon>
      <polygon class="lift" points="433.3 569.6 395.3 567 382.6 578.1 383.3 592.3 421.3 595 420.6 580.7"></polygon>
      <g>
        <polygon class="lift" points="805.2 576 805.9 590.3 791.9 602.5 791.2 588.3"></polygon>
        <polygon class="lift2" points="805.2 576 770.8 573.6 756.8 585.9 757.5 600.1 791.9 602.5 791.2 588.3"></polygon>
        <polygon class="lift2" points="789.5 589.8 755 587.4 741.1 599.7 741.7 613.9 776.1 616.3 775.5 602.1"></polygon>
				<polygon class="lift" points="789.5 589.8 790.1 604.1 776.1 616.3 775.5 602.1"></polygon>
      </g>
    </g>
    <path d="M1184.2 705.4l91.7-80.2-.7-14.3-152.1-10.6-69.9 60.6-47.9-3.4-22.4 19.6.7 14.3 200.6 14z" class="sides"></path>
    <polygon points="826.6 629.5 825.9 615.2 671.6 604.4 693.5 585.5 692.8 571.2 531.5 559.9 494.9 591.6 271.7 575.9 255.6 590.1 256.2 604.3 810.9 643.1 811 643.1" class="sides"></polygon>
    <polygon fill="#9d4068" points="509.8 621.4 508.4 608.9 409.9 602 407.2 604.4 407.1 601.8 305.4 594.7 304.3 595.7 304.2 594.6 254.3 591.1 213.9 626.5 214.6 640.8 264.4 644.3 265.6 643.3 265.7 644.4 367.4 651.5 370.1 649.1 370.2 651.7 415.6 654.8 418.8 652.1 418.9 655.1 468.6 658.5"></polygon>
    <path d="M968.3 603.7l-.7-14.3-101.2-7.1-53.3 46.7.1 1.2-1.3-.1-.3.3v-.3L710.3 623l-.9.8v-.9l-100.1-7-.6.5v-.5l-100.1-7-40.4 35.4.7 14.3 100.1 7 .6-.5v.5l100.1 7 .9-.8v.9l101.2 7.1.3-.3v.3l101.2 7.1 40.4-35.4-.1-1.2 1.3.1 53.4-46.7z" class="sides"></path>
    <polygon id="podol_1_1" points="890.5 459.8 794.9 542.6 765.4 540.5 732 569.8 359.5 544 466.7 448.2 417.6 444.9 436.8 428.1" class="mapplic-clickable"></polygon>
    <polygon id="podol_1_2" points="358.4 546.8 325.2 575.8 275.4 572.3 308.5 543.4"></polygon>
    <polygon id="podol_1_3" points="692.8 571.2 655 603.5 825.9 615.2 810.8 628.4 255.6 590.1 271.7 575.9 494.9 591.6 531.5 559.9" class="st9"></polygon>
    <polygon id="podol_1_5" points="1275.2 610.9 1183.5 691.1 982.9 677.1 1005.4 657.4 1053.5 660.8 1123.2 600.2" class="st7"></polygon>
    <polygon id="podol_1_6" points="304.2 594.6 264.7 629.7 213.9 626.5 254.3 591.1" class="st7"></polygon>
    <polygon id="podol_1_7" points="407.1 601.8 366.7 636.9 266.3 629.9 305.4 594.7" class="st7"></polygon>
    <polygon id="podol_1_8" points="508.4 608.9 494.7 620.8 396.4 613.9 409.9 602" class="mapplic-clickable"></polygon>
    <polygon id="podol_1_9" points="442.1 617.9 415.3 640.6 369.5 637.4 395.5 614.6"></polygon>
    <polygon id="podol_1_10" points="493.6 621.9 468.1 644.3 418.5 641 445 618.3" class="st7"></polygon>
      <polygon id="podol_1_4" points="967.7 589.4 914.4 636.4 813.1 629 866.4 582.4"></polygon>
      <polygon id="podol_1_14" points="912.8 637.5 871.6 672.1 772.2 665.4 811.9 630.1"></polygon>
      <polygon id="podol_1_13" points="811.6 630.1 771.6 665.3 670.8 658.1 710.3 623"></polygon>
      <polygon id="podol_1_12" points="709.4 623 670 657.9 569.6 651.1 609.3 616"></polygon>
      <polygon id="podol_1_11" points="608.7 615.9 569 650.9 468.2 644.3 508.6 608.9"></polygon>
  </g>
</svg>