<svg xmlns="http://www.w3.org/2000/svg" id="Слой_1" viewBox="0 0 1597 1296">
  <style>
    .sides{fill:#a4446e}.lift2{fill:#c4c4c4}.lift{fill:#b5b5b5}
  </style>
  <g id="пол">
    <polygon fill="#58686c" points="1291.4 627.7 1290.9 618.2 1130.3 606.9 1122.2 614 1118.6 613.8 1118.3 607.1 1076.5 604.2 1069.5 610.4 942.8 601.5 942.8 601.5 942.4 592.1 942.4 591.9 797 581.8 810 570.4 868 574.5 974 539.9 973.5 530.4 955.5 525.3 861.3 555.7 849 554.9 953.4 463.3 953 453.8 823.7 444.7 815.5 451.9 814.3 452.9 379.2 422.9 120.2 649.6 120.7 659.1 306.3 672.4 319.7 660.7 319.7 660.7 1187.6 722 1289 633.3 1288.8 629.9"/>
    <polygon fill="#8b9193" points="953 453.8 837.9 554.1 861.3 555.7 955.5 525.3 973.5 530.4 867.5 564.9 809.1 560.8 785.4 581.6 942.4 591.9 932.1 601.2 1069.5 610.4 1076.5 604.2 1118.3 607.1 1110.9 613.8 1122.1 614.5 1130.2 607.4 1290.9 618.2 1284.7 624.1 1288.4 624.4 1187.6 712.4 317.7 651.1 304.3 662.7 120.2 649.6 379.2 422.9 814.3 452.9 823.7 444.7"/>
  </g>
  <g id="landmarks-o2">
    <path fill="#a4446e" d="M1284.3 606.7l-398.8-28.6-.2-4.3-74.3-5.2-5.9 4.9-20-1.4 102-87.3 22.5 1.6 26.8-23.9-.7-14.3L402 410.8 167 620l.7 14.3 1021.5 70.5L1285 621l-.7-14.3zm-818.5-18.1l-145.9-10.1 23-20.2 145.9 10.1-23 20.2zm367.4 24.1L689.3 603l22.5-19.7 143.9 9.6-22.5 19.8z"/>
    <g id="_x22_лифты_x22_">
      <polygon class="lift2" points="390.5 566.6 391.2 580.9 378.5 592 377.8 577.7"></polygon>
      <polygon class="lift" points="390.5 566.6 352.5 564 339.8 575.1 340.5 589.3 378.5 592 377.8 577.7"></polygon>
      <polygon class="lift2" points="433.3 569.6 434 583.9 421.3 595 420.6 580.7"></polygon>
      <polygon class="lift" points="433.3 569.6 395.3 567 382.6 578.1 383.3 592.3 421.3 595 420.6 580.7"></polygon>
      <g>
        <polygon class="lift" points="805.2 576 805.9 590.3 791.9 602.5 791.2 588.3"></polygon>
        <polygon class="lift2" points="805.2 576 770.8 573.6 756.8 585.9 757.5 600.1 791.9 602.5 791.2 588.3"></polygon>
        <polygon class="lift2" points="789.5 589.8 755 587.4 741.1 599.7 741.7 613.9 776.1 616.3 775.5 602.1"></polygon>
				<polygon class="lift" points="789.5 589.8 790.1 604.1 776.1 616.3 775.5 602.1"></polygon>
      </g>
    </g>
    <path id="podol_2_1" fill="#b15e82" d="M880.5 577.8l403.8 28.9-95.8 83.8L167 620l235-209.2 533.7 37.3-26.7 24-22.5-1.3-117.4 100.1 36 2.5 5.9-4.9 74.3 5.2-4.8 4.1zm-575.9-.7l159.3 11.4 39-33.3-160.6-11.1-37.7 33m566.1 2.7L711 569.1 673.5 602l159.7 10.7 37.5-32.9z"/>
  </g>
</svg>