<svg xmlns="http://www.w3.org/2000/svg" viewBox="0 0 1597 1296">
  <style>
    .sides{fill:#a4446e}.lift2{fill:#c4c4c4}.lift{fill:#b5b5b5}
  </style>
  <path id="Слой_1_1_" fill="#58686c" d="M1291.3 627.7l-.5-9.5L233.2 543l-113 106.6.5 9.5 185.6 13.3 13.4-11.7 143.3 10 109.9 8.3 614.8 43 101.3-88.7-.2-3.4 2.5-2.2z"/>
  <g id="landmarks-o9">
    <polygon fill="#8b9193" points="1290.9 618.2 1284.7 623.6 1288.4 623.9 1187.1 712.5 572.7 669.2 462.8 660.9 319.1 651.2 305.8 662.9 120.2 649.6 233.2 543"/>
    <path fill="#a4446e" d="M1284.1 606.5l-524-36.6-467.2-32.7-95.3 84.5.7 14.3 990.8 68.5 95.8-83.9-.8-14.1zm-428-13.5l-23.4 20.1-143.7-9.6 23.4-20.1 143.7 9.6zm-368.8-24.2l-22.2 19.4-145.3-10.3 22.2-19.4 145.3 10.3z"/>
    <g id="_x22_лифты_x22_">
      <polygon class="lift2" points="390.5 566.6 391.2 580.9 378.5 592 377.8 577.7"></polygon>
      <polygon class="lift" points="390.5 566.6 352.5 564 339.8 575.1 340.5 589.3 378.5 592 377.8 577.7"></polygon>
      <polygon class="lift2" points="433.3 569.6 434 583.9 421.3 595 420.6 580.7"></polygon>
      <polygon class="lift" points="433.3 569.6 395.3 567 382.6 578.1 383.3 592.3 421.3 595 420.6 580.7"></polygon>
      <g>
        <polygon class="lift" points="805.2 576 805.9 590.3 791.9 602.5 791.2 588.3"></polygon>
        <polygon class="lift2" points="805.2 576 770.8 573.6 756.8 585.9 757.5 600.1 791.9 602.5 791.2 588.3"></polygon>
        <polygon class="lift2" points="789.5 589.8 755 587.4 741.1 599.7 741.7 613.9 776.1 616.3 775.5 602.1"></polygon>
				<polygon class="lift" points="789.5 589.8 790.1 604.1 776.1 616.3 775.5 602.1"></polygon>
      </g>
    </g>
    <path id="podol_9_1" fill="#b15e82" d="M759.7 570.3l524.4 36.2-95.8 83.9-990.8-68.5 95.3-84.5 466.9 32.9zm73 42.8l38.8-33.3-159.7-10.7-38.8 33.3 159.7 10.7m-367.6-24.9l37.2-32.6-161-11.4-37.2 32.6 161 11.4"/>
  </g>
</svg>