<svg opacity=".12" xmlns="http://www.w3.org/2000/svg" viewBox="0 0 455 455"><path d="M360.97 130.6a7.5 7.5 0 0 0-2.98 14.7 2.54 2.54 0 0 1 2 2.45v160c0 1.35-1.14 2.5-2.5 2.5H179.69a7.5 7.5 0 1 0 0 15H357.5c9.65 0 17.5-7.85 17.5-17.5v-160c0-8.29-5.9-15.5-14.03-17.15zM274.82 130.25H97.5c-9.65 0-17.5 7.85-17.5 17.5v160c0 8.06 5.48 15.05 13.33 16.98a7.5 7.5 0 0 0 3.6-14.56 2.54 2.54 0 0 1-1.93-2.42v-160c0-1.35 1.15-2.5 2.5-2.5h177.32a7.5 7.5 0 1 0 0-15z"/><path d="M235.36 170.8a57.56 57.56 0 0 0-64.81 64.81 7.5 7.5 0 0 0 14.86-2.03 42.55 42.55 0 0 1 47.92-47.92 7.5 7.5 0 1 0 2.03-14.86zM219.13 284.64a57.56 57.56 0 0 0 65.26-65.26 7.5 7.5 0 0 0-14.84 2.17 42.55 42.55 0 0 1-48.25 48.25 7.5 7.5 0 1 0-2.17 14.84zM318.5 203.25c9.1 0 16.5-7.4 16.5-16.5 0-8.32-6.23-15.36-14.48-16.37-2.3-.28-4.59.5-6.22 2.14l-10.03 10.03a7.5 7.5 0 0 0-2.14 6.22 16.51 16.51 0 0 0 16.37 14.48zM117.5 114.75h30a7.5 7.5 0 1 0 0-15h-30a7.5 7.5 0 1 0 0 15z"/><path d="M388.37 66.63C345.4 23.66 288.27 0 227.5 0S109.6 23.66 66.63 66.63 0 166.73 0 227.5s23.66 117.9 66.63 160.87S166.73 455 227.5 455s117.9-23.66 160.87-66.63S455 288.27 455 227.5s-23.66-117.9-66.63-160.87zM15 227.5C15 110.33 110.33 15 227.5 15c55.9 0 106.8 21.7 144.78 57.11L72.11 372.28A211.7 211.7 0 0 1 15 227.5zM227.5 440a211.7 211.7 0 0 1-144.78-57.11L382.89 82.72A211.7 211.7 0 0 1 440 227.5C440 344.67 344.67 440 227.5 440z"/></svg>