<svg xmlns="http://www.w3.org/2000/svg" viewBox="0 0 89.53 89.53"><path d="M12.24 88.08v-7.84H77.3v7.84a1.38 1.38 0 1 0 2.76 0v-8.1h8.1a1.38 1.38 0 1 0 0-2.76h-8.1v-64.9h8.1a1.38 1.38 0 1 0 0-2.76h-8.1v-8.1a1.38 1.38 0 1 0-2.76 0v8.1H12.24v-8.1a1.38 1.38 0 1 0-2.75 0v8.1H1.38a1.38 1.38 0 1 0 0 2.75h7.98v64.91H1.38a1.37 1.37 0 1 0 0 2.76h8.1v8.1a1.38 1.38 0 1 0 2.76 0zm-.06-54.8V12.3h21.11v20.96H12.18zm22.03 0V12.3h21.05v20.96H34.21zm22.03 0V12.3H77.3v20.96H56.24zM12.18 55.3V34.19h21.11V55.3H12.18zm22.03 0V34.19h21.05v21.12H34.21zm22.03 0V34.19H77.3v21.12H56.24zM12.18 77.34V56.22h21.11v21.12H12.18zm22.03 0V56.22h21.05v21.12H34.21zm22.03 0V56.22H77.3v21.12H56.24zm1.86-1.72V58.3h17.33v17.33H58.1z"/></svg>