<svg xmlns="http://www.w3.org/2000/svg" viewBox="-44 0 511 512"><path d="M416.8 208.4H296.6c-13 0-23.6 10.6-23.6 23.6v72.6h-25V264c0-13-10.6-23.5-23.6-23.5H192c-2.5 0-5-1.2-6.6-3.1l-16.7-20.5L303 11.6a7.5 7.5 0 1 0-12.6-8.2l-81.9 125.2-52.1-44.3L191 10.7a7.5 7.5 0 0 0-13.5-6.4L106 155.4 54 207.3a23.6 23.6 0 0 0 0 33.3l62.8 62.7a55.3 55.3 0 0 0 22.6 13.8c-1.7 3.3-2.7 7-2.7 11v72.7H24C11 400.8.5 411.4.5 424.3v80.2a7.5 7.5 0 0 0 15 0v-80.2c0-4.7 3.8-8.5 8.5-8.5h120.3c4.1 0 7.5-3.4 7.5-7.5v-80.2c0-4.7 3.8-8.5 8.5-8.5h120.2c4.2 0 7.5-3.3 7.5-7.5V232c0-4.8 3.9-8.6 8.6-8.6h120.2a7.5 7.5 0 0 0 0-15zM121 158.7l14.2-30 46.9 40.2-23.4 35.8zm79.1-17.4l-9.7 15-48.5-41.6 7.7-16.4zm-44 163.3c-10.8 0-21-4.2-28.6-11.9L64.7 230a8.5 8.5 0 0 1 0-12.1l7.4-7.4 70.2 70.2a23.4 23.4 0 0 0 16.6 6.9h33.5a7.5 7.5 0 1 0 0-15h-33.5c-2.2 0-4.4-1-6-2.5l-70.2-70.2 29-29 62 76a23.4 23.4 0 0 0 18.2 8.6h32.5c4.7 0 8.6 3.8 8.6 8.5v8.6h-8.6a7.5 7.5 0 1 0 0 15h8.6v17zm0 0"/></svg>