<svg xmlns="http://www.w3.org/2000/svg" viewBox="0 0 512 512"><path d="M156.6 49.7h-24.85a7.5 7.5 0 1 0 0 15h24.85a7.5 7.5 0 1 0 0-15zM380.25 49.7H355.4a7.5 7.5 0 1 0 0 15h24.85a7.5 7.5 0 1 0 0-15z"/><path d="M388.54 16.56H326.9l-6.2-12.41A7.5 7.5 0 0 0 313.98 0H198.02a7.5 7.5 0 0 0-6.7 4.15l-6.22 12.41h-61.63A40.68 40.68 0 0 0 82.83 57.2v331.33a40.68 40.68 0 0 0 40.64 40.63h33.13c.83 0 1.61-.13 2.36-.38l-41.97 71.94a7.5 7.5 0 0 0 12.96 7.56l55.81-95.68h15.77l-51.4 88.12a7.5 7.5 0 0 0 12.95 7.56l12.33-21.13H336.6l12.32 21.12a7.5 7.5 0 1 0 12.96-7.56l-51.4-88.11h15.77l55.8 95.68a7.5 7.5 0 1 0 12.96-7.56l-41.96-71.94c.74.25 1.53.38 2.35.38h33.13a40.68 40.68 0 0 0 40.64-40.63V57.2a40.68 40.68 0 0 0-40.63-40.64zm-191.3 9.28L202.66 15h45.84v9.06a7.5 7.5 0 1 0 15 0V15h45.85l5.42 10.84V49.7H197.24V25.84zM164.1 419.96v-7.36h4.3l-4.3 7.36zm153.17 34.06l10.58 18.13h-143.7l10.59-18.13h122.53zm-113.78-15l15.4-26.42h74.22l15.41 26.42H203.5zm144.41-19.06l-4.29-7.36h4.3v7.36zm66.27-31.43a25.66 25.66 0 0 1-25.63 25.63H362.9v-9.06a7.5 7.5 0 0 0-7.5-7.5H156.61a7.5 7.5 0 0 0-7.5 7.5v9.06h-25.64a25.66 25.66 0 0 1-25.63-25.63v-9.07H206.3a7.5 7.5 0 0 0 6.24-3.33l14.34-21.51h58.24l14.34 21.5a7.5 7.5 0 0 0 6.24 3.35h108.47v9.06zm0-24.06H309.7l-14.34-21.51a7.5 7.5 0 0 0-6.24-3.34h-66.26a7.5 7.5 0 0 0-6.24 3.34l-14.34 21.5H97.83v-67.83h316.34v67.84zm0-82.84H97.83V97.83h316.34v183.8zm0-198.8H97.83V57.2a25.66 25.66 0 0 1 25.64-25.64h58.77V57.2a7.5 7.5 0 0 0 7.5 7.5h132.53a7.5 7.5 0 0 0 7.5-7.5V31.56h58.77a25.66 25.66 0 0 1 25.63 25.64v25.63z"/><path d="M396.82 107.68H115.19a7.5 7.5 0 0 0-7.5 7.5v149.1a7.5 7.5 0 0 0 7.5 7.5h281.63a7.5 7.5 0 0 0 7.5-7.5v-149.1a7.5 7.5 0 0 0-7.5-7.5zm-7.5 149.1H122.69v-134.1h266.63v134.1zM156.6 49.7h-24.85a7.5 7.5 0 1 0 0 15h24.85a7.5 7.5 0 1 0 0-15zM380.25 49.7H355.4a7.5 7.5 0 1 0 0 15h24.85a7.5 7.5 0 1 0 0-15zM173.17 306.48h-33.13c-13.27 0-24.07 10.8-24.07 24.07s10.8 24.06 24.07 24.06h33.13a24.1 24.1 0 0 0 24.07-24.06 24.1 24.1 0 0 0-24.07-24.07zm0 33.14h-33.13a9.08 9.08 0 0 1 0-18.14h33.13a9.08 9.08 0 0 1 0 18.14zM371.97 306.48h-33.13a24.1 24.1 0 0 0-24.07 24.07 24.1 24.1 0 0 0 24.07 24.07h33.13a24.1 24.1 0 0 0 24.07-24.07 24.1 24.1 0 0 0-24.07-24.07zm0 33.13h-33.13a9.08 9.08 0 0 1 0-18.13h33.13a9.08 9.08 0 0 1 0 18.13z"/></svg>